<?xml version="1.0" encoding="UTF-8" standalone="no"?>
<!-- Created with Inkscape (http://www.inkscape.org/) -->

<svg
   width="210mm"
   height="297mm"
   viewBox="0 0 210 297"
   version="1.1"
   id="svg1"
   inkscape:version="1.4 (e7c3feb, 2024-10-09)"
   sodipodi:docname="ardilla.svg"
   xmlns:inkscape="http://www.inkscape.org/namespaces/inkscape"
   xmlns:sodipodi="http://sodipodi.sourceforge.net/DTD/sodipodi-0.dtd"
   xmlns="http://www.w3.org/2000/svg"
   xmlns:svg="http://www.w3.org/2000/svg">
  <sodipodi:namedview
     id="namedview1"
     pagecolor="#ffffff"
     bordercolor="#000000"
     borderopacity="0.25"
     inkscape:showpageshadow="2"
     inkscape:pageopacity="0.0"
     inkscape:pagecheckerboard="0"
     inkscape:deskcolor="#d1d1d1"
     inkscape:document-units="mm"
     inkscape:zoom="0.48996914"
     inkscape:cx="395.94331"
     inkscape:cy="561.25984"
     inkscape:window-width="1486"
     inkscape:window-height="795"
     inkscape:window-x="50"
     inkscape:window-y="32"
     inkscape:window-maximized="1"
     inkscape:current-layer="layer1" />
  <defs
     id="defs1" />
  <g
     inkscape:label="Capa 1"
     inkscape:groupmode="layer"
     id="layer1">
    <path
       style="fill:#000000;stroke-width:0.264583"
       d="M 42.660001,124.2 C 83.159998,94.499998 92.339998,109.08 92.339998,109.08 L 124.2,75.059999 c 0,0 38.34,5.400001 3.78,25.380001 -34.560002,19.98 13.5,15.12 13.5,15.12 0,0 42.66,-17.820002 7.02,17.82 -35.64,35.64 -77.760001,7.02 -77.760001,7.02 0,0 25.919999,5.94 26.999999,-10.26 1.08,-16.2 -34.019998,-4.32 -34.019998,-4.32 0,0 9.719998,35.1 -11.340002,19.44 C 31.319999,129.6 42.660001,124.2 42.660001,124.2 Z"
       id="path1" />
    <path
       style="fill:#000000;stroke-width:0.264583"
       d="m 111.78,120.42 c 0,0 -11.880002,56.16 11.88,41.58 23.76,-14.58 27.54,-58.86 27.54,-58.86 0,0 -35.64,48.06 -25.92,5.4 9.72,-42.66 -4.32,-43.200001 -4.32,-43.200001 0,0 -4.86,27.54 -21.600001,21.600001 -16.739999,-5.940002 -31.86,16.74 -31.86,16.74 0,0 -9.72,32.94 5.939999,29.7 C 89.1,130.14 79.38,167.94 89.1,130.14 c 9.719998,-37.800002 10.259999,27.54 10.259999,27.54 0,0 -28.62,45.9 -10.8,28.62 C 106.38,169.02 111.78,120.42 111.78,120.42 Z"
       id="path2" />
  </g>
</svg>
